<?xml version="1.0" encoding="UTF-8"?>
<svg id="Calque_1" xmlns="http://www.w3.org/2000/svg" version="1.1" viewBox="0 0 512 512">
  <!-- Generator: Adobe Illustrator 30.3.0, SVG Export Plug-In . SVG Version: 2.1.3 Build 182)  -->
  <defs>
    <style>
      .st0 {
        fill: #d9cfc7;
      }
    </style>
  </defs>
  <path class="st0" d="M256,36.55c-124.31,0-225,100.69-225,225,0,99.56,64.41,183.66,153.84,213.47,11.25,1.97,15.47-4.78,15.47-10.69,0-5.34-.28-23.06-.28-41.91-56.53,10.41-71.16-13.78-75.66-26.44-2.53-6.47-13.5-26.44-23.06-31.78-7.87-4.22-19.13-14.62-.28-14.91,17.72-.28,30.37,16.31,34.59,23.06,20.25,34.03,52.59,24.47,65.53,18.56,1.97-14.63,7.88-24.47,14.34-30.09-50.06-5.62-102.38-25.03-102.38-111.09,0-24.47,8.72-44.72,23.06-60.47-2.25-5.62-10.13-28.69,2.25-59.62,0,0,18.84-5.91,61.88,23.06,18-5.06,37.13-7.59,56.25-7.59s38.25,2.53,56.25,7.59c43.03-29.25,61.87-23.06,61.87-23.06,12.37,30.94,4.5,54,2.25,59.63,14.34,15.75,23.06,35.72,23.06,60.47,0,86.34-52.59,105.47-102.66,111.09,8.16,7.03,15.19,20.53,15.19,41.63,0,30.09-.28,54.28-.28,61.87,0,5.91,4.22,12.94,15.47,10.69,91.6-30.9,153.28-116.79,153.28-213.47,0-124.31-100.69-225-225-225"/>
</svg>