<?xml version="1.0" encoding="UTF-8"?>
<svg id="Calque_1" xmlns="http://www.w3.org/2000/svg" version="1.1" viewBox="0 0 512 512">
  <!-- Generator: Adobe Illustrator 30.3.0, SVG Export Plug-In . SVG Version: 2.1.3 Build 182)  -->
  <defs>
    <style>
      .st0 {
        fill: #d9cfc7;
      }
    </style>
  </defs>
  <path class="st0" d="M256,21c-63.77,0-71.79.29-96.85,1.41-25.06,1.17-42.12,5.11-57.08,10.93-15.69,5.88-29.9,15.14-41.62,27.11-11.97,11.72-21.23,25.93-27.11,41.62-5.82,14.92-9.78,32.02-10.93,56.99-1.12,25.12-1.41,33.11-1.41,96.97s.29,71.79,1.41,96.85c1.17,25.03,5.11,42.09,10.93,57.05,6.02,15.45,14.04,28.55,27.11,41.62,13.04,13.07,26.14,21.12,41.59,27.11,14.98,5.82,32.02,9.78,57.05,10.93,25.09,1.12,33.08,1.41,96.91,1.41s71.79-.29,96.88-1.41c25-1.17,42.12-5.11,57.08-10.93,15.68-5.89,29.88-15.14,41.6-27.11,13.07-13.07,21.09-26.17,27.11-41.62,5.79-14.95,9.75-32.02,10.93-57.05,1.12-25.06,1.41-33.05,1.41-96.88s-.29-71.82-1.41-96.91c-1.17-25-5.14-42.09-10.93-57.02-5.88-15.69-15.14-29.9-27.11-41.62-11.72-11.97-25.93-21.23-41.62-27.11-14.98-5.82-32.08-9.78-57.08-10.93-25.09-1.12-33.05-1.41-96.91-1.41h.06ZM234.94,63.36h21.09c62.74,0,70.18.21,94.94,1.35,22.91,1.03,35.37,4.88,43.65,8.08,10.96,4.26,18.8,9.37,27.03,17.6s13.31,16.04,17.57,27.03c3.23,8.25,7.05,20.71,8.08,43.62,1.15,24.76,1.38,32.19,1.38,94.91s-.24,70.18-1.38,94.94c-1.03,22.91-4.88,35.34-8.08,43.62-3.79,10.19-9.8,19.41-17.6,27-8.22,8.22-16.04,13.31-27.03,17.57-8.22,3.23-20.68,7.05-43.62,8.11-24.76,1.12-32.19,1.38-94.94,1.38s-70.21-.26-94.97-1.38c-22.91-1.06-35.34-4.88-43.62-8.11-10.2-3.78-19.43-9.78-27.03-17.57-7.81-7.59-13.83-16.82-17.63-27.03-3.2-8.25-7.05-20.71-8.08-43.62-1.12-24.76-1.35-32.19-1.35-94.97s.24-70.15,1.35-94.91c1.06-22.91,4.88-35.37,8.11-43.65,4.26-10.96,9.37-18.8,17.6-27.03s16.04-13.31,27.03-17.57c8.28-3.23,20.71-7.05,43.62-8.11,21.68-1,30.08-1.29,73.88-1.32v.06ZM381.46,102.37c-15.57,0-28.2,12.63-28.2,28.2s12.63,28.2,28.2,28.2h0c15.57,0,28.2-12.63,28.2-28.2s-12.63-28.2-28.2-28.2M256.03,135.33c-66.65-1.04-121.53,52.15-122.57,118.8-1.04,66.65,52.15,121.53,118.8,122.57,1.26.02,2.51.02,3.77,0,66.65-1.04,119.84-55.92,118.8-122.57-1.02-65.19-53.62-117.79-118.8-118.8M256.03,177.66c43.27-.02,78.36,35.04,78.38,78.31s-35.04,78.36-78.31,78.38h-.07c-43.27,0-78.34-35.08-78.34-78.34s35.08-78.34,78.34-78.34"/>
</svg>