<?xml version="1.0" encoding="UTF-8"?>
<svg id="Calque_1" xmlns="http://www.w3.org/2000/svg" version="1.1" viewBox="0 0 512 512">
  <!-- Generator: Adobe Illustrator 30.3.0, SVG Export Plug-In . SVG Version: 2.1.3 Build 182)  -->
  <defs>
    <style>
      .st0 {
        fill-rule: evenodd;
      }

      .st0, .st1 {
        fill: #d9cfc7;
      }
    </style>
  </defs>
  <path class="st1" d="M392.09,245.81c0-24.91-8.96-42.15-16.63-55.58l-2.35-3.82c-9.31-14.98-17.45-28.14-17.45-43.48,0-18.51,14.04-35.78,33.84-35.78.59,0,1.16.03,1.7.09l.91.09c-37.13-34.1-85.72-52.99-136.12-52.93-67.86,0-131.17,34.14-168.44,90.86,4.7.15,9.19.26,12.98.26,21.06,0,53.7-2.56,53.7-2.56,10.87-.65,12.16,15.3,1.29,16.6,0,0-10.9,1.29-23.06,1.91l73.44,218.37,44.06-132.36-31.43-86.04c-10.84-.65-21.12-1.91-21.12-1.91-10.87-.65-9.58-17.27,1.26-16.63,0,0,33.31,2.56,53.11,2.56,21.09,0,53.76-2.56,53.76-2.56,10.87-.65,12.13,15.33,1.26,16.63,0,0-10.93,1.26-23.06,1.91l72.85,216.7,20.09-67.18,1.59-5.08c7.93-25.26,13.78-43.92,13.78-60.1l.03.03ZM54.4,256c-.03,77.25,44.1,147.73,113.62,181.42L71.82,173.93c-11.55,25.82-17.49,53.79-17.42,82.07"/>
  <path class="st1" d="M199.04,449.38l60.51-175.75,61.95,169.79c.39.98.87,1.9,1.44,2.76-39.94,14.08-83.29,15.2-123.9,3.2M432.87,159.27c.9,6.42,1.36,13.34,1.38,20.74,0,20.45-3.82,43.45-15.33,72.2l-61.57,178.01c94.48-54.89,128-175.09,75.55-270.95h-.03Z"/>
  <path class="st0" d="M21,256C21,126.43,126.43,21,256,21s235,105.43,235,235-105.46,235-235,235S21,385.57,21,256M31.78,256c0,123.64,100.58,224.22,224.22,224.22s224.19-100.58,224.19-224.22S379.61,31.78,256,31.78,31.78,132.33,31.78,256"/>
</svg>