<?xml version="1.0" encoding="UTF-8"?>
<svg id="Calque_1" xmlns="http://www.w3.org/2000/svg" version="1.1" viewBox="0 0 512 512">
  <!-- Generator: Adobe Illustrator 30.3.0, SVG Export Plug-In . SVG Version: 2.1.3 Build 182)  -->
  <defs>
    <style>
      .st0 {
        fill: #d9cfc7;
      }
    </style>
  </defs>
  <path class="st0" d="M257.61,80.38h2.78c25.69.09,155.85,1.03,190.95,10.47,21.59,5.86,38.44,22.77,44.22,44.38,3.16,11.88,5.38,27.6,6.88,43.82l.31,3.25.69,8.13.25,3.25c2.03,28.56,2.28,55.32,2.31,61.16v2.34c-.03,6.06-.31,34.63-2.56,64.38l-.25,3.28-.28,3.25c-1.56,17.88-3.88,35.63-7.34,48.69-5.79,21.61-22.63,38.52-44.22,44.38-36.25,9.75-174.04,10.44-193.14,10.47h-4.44c-9.66,0-49.6-.19-91.47-1.63l-5.31-.19-2.72-.12-5.34-.22-5.34-.22c-34.69-1.53-67.72-4-82.94-8.13-21.58-5.86-38.43-22.75-44.22-44.35-3.47-13.03-5.78-30.81-7.34-48.69l-.25-3.28-.25-3.25c-1.55-21.18-2.41-42.4-2.56-63.63v-3.84c.06-6.72.31-29.94,2-55.57l.22-3.22.09-1.63.25-3.25.69-8.13.31-3.25c1.5-16.22,3.72-31.97,6.88-43.82,5.79-21.61,22.63-38.52,44.22-44.38,15.22-4.06,48.25-6.56,82.94-8.13l5.31-.22,5.38-.19,2.69-.09,5.34-.22c29.74-.96,59.5-1.49,89.26-1.59l6.03-.03ZM206.01,180.7v150.57l129.91-75.25-129.91-75.32Z"/>
</svg>